<svg width="10" height="11" viewBox="0 0 10 11" fill="none" xmlns="http://www.w3.org/2000/svg">
<path d="M1.07518 0.425581C0.957303 0.304039 0.799427 0.236786 0.635554 0.238306C0.471681 0.239827 0.314924 0.309999 0.199043 0.433709C0.0831634 0.557419 0.0174327 0.724768 0.0160087 0.899714C0.0145847 1.07466 0.0775811 1.2432 0.19143 1.36904L3.8008 5.2223L0.190805 9.07556C0.131111 9.13711 0.0834971 9.21074 0.0507415 9.29214C0.0179859 9.37354 0.000744733 9.4611 2.35982e-05 9.54969C-0.000697537 9.63829 0.0151159 9.72615 0.0465414 9.80815C0.077967 9.89015 0.124375 9.96465 0.183058 10.0273C0.241741 10.0899 0.311524 10.1395 0.388334 10.173C0.465144 10.2066 0.547444 10.2235 0.630431 10.2227C0.713418 10.2219 0.79543 10.2035 0.871683 10.1686C0.947935 10.1336 1.0169 10.0828 1.07455 10.019L4.68455 6.16577L8.29393 10.019C8.41181 10.1406 8.56968 10.2078 8.73355 10.2063C8.89743 10.2048 9.05419 10.1346 9.17007 10.0109C9.28595 9.88719 9.35168 9.71984 9.3531 9.54489C9.35452 9.36994 9.29153 9.2014 9.17768 9.07556L5.5683 5.2223L9.17768 1.36904C9.29153 1.2432 9.35452 1.07466 9.3531 0.899714C9.35168 0.724768 9.28595 0.557419 9.17007 0.433709C9.05419 0.309999 8.89743 0.239827 8.73355 0.238306C8.56968 0.236786 8.41181 0.304039 8.29393 0.425581L4.68455 4.27884L1.07518 0.424914V0.425581Z" fill="black"/>
</svg>